<svg xmlns="http://www.w3.org/2000/svg" style="display: none">

    <!-- <symbol id="icon-home-coding-bg" viewBox="0 0 348 272">
        <path d="M66.5786 5.4838C28.6373 17.3793 8.46514 41.5013 2.37039 75.5719C-10.8954 149.73 32.4782 237.184 108.471 262.227C138.471 272.113 241.211 286.732 305.971 226.727C370.971 166.5 363.913 29.82 256.772 29.82C178.457 29.8199 132.971 -15.3319 66.5786 5.4838Z" fill="white" />
    </symbol>

    <symbol id="icon-home-team-bg" viewBox="0 0 356 283">
        <path d="M48.3146 61.1821C7.74955 103.564 -3.3346 153.182 0.814666 185.682C4.96393 218.182 37.0234 285.913 122.314 279.682C231.814 271.682 267.944 302.238 322.814 259.182C394.252 203.126 345.315 12.1821 203.815 0.682191C133.332 -5.04604 81.8143 26.1821 48.3146 61.1821Z" fill="white" />
    </symbol>

    <symbol id="icon-home-maintain-bg" viewBox="0 0 549 401">
        <path d="M199.594 389.959C315.903 369.279 368.899 421.918 455.193 389.959C541.486 358 585.882 190.683 508.657 99.0377C457.708 38.5747 364.209 -22.6901 205.222 8.33043C63.0096 36.0781 4.65197 120.657 0.167429 226.318C-4.16844 328.476 76.0636 411.922 199.594 389.959Z" fill="white" />
    </symbol> -->

    <symbol id="icon-arrow-to-right" viewBox="0 0 16 16">
        <path d="M5 3L14 8L5 13Z" fill="currentColor" />
    </symbol>

    <symbol id="icon-footer-phone" viewBox="0 0 32 32">
        <path d="M11.2178 14.9244C12.4978 17.44 14.56 19.4933 17.0756 20.7822L19.0311 18.8267C19.2711 18.5867 19.6267 18.5067 19.9378 18.6133C20.9333 18.9422 22.0089 19.12 23.1111 19.12C23.6 19.12 24 19.52 24 20.0089V23.1111C24 23.6 23.6 24 23.1111 24C14.7644 24 8 17.2356 8 8.88889C8 8.4 8.4 8 8.88889 8H12C12.4889 8 12.8889 8.4 12.8889 8.88889C12.8889 10 13.0667 11.0667 13.3956 12.0622C13.4933 12.3733 13.4222 12.72 13.1733 12.9689L11.2178 14.9244Z" fill="currentColor" />
    </symbol>

    <symbol id="icon-footer-email" viewBox="0 0 32 32">
        <path d="M22.9 10H10.1C9.22 10 8.5 10.7312 8.5 11.625V21.375C8.5 22.2688 9.22 23 10.1 23H22.9C23.78 23 24.5 22.2688 24.5 21.375V11.625C24.5 10.7312 23.78 10 22.9 10ZM22.58 13.4531L17.348 16.7762C16.828 17.1094 16.172 17.1094 15.652 16.7762L10.42 13.4531C10.3398 13.4074 10.2695 13.3456 10.2135 13.2715C10.1575 13.1974 10.1168 13.1125 10.0941 13.022C10.0713 12.9315 10.0668 12.8372 10.0809 12.7449C10.095 12.6526 10.1275 12.5641 10.1762 12.4849C10.225 12.4056 10.2891 12.3373 10.3646 12.2839C10.4401 12.2306 10.5255 12.1934 10.6156 12.1745C10.7057 12.1556 10.7986 12.1555 10.8888 12.1742C10.9789 12.1929 11.0644 12.2299 11.14 12.2831L16.5 15.6875L21.86 12.2831C21.9356 12.2299 22.0211 12.1929 22.1112 12.1742C22.2014 12.1555 22.2943 12.1556 22.3844 12.1745C22.4745 12.1934 22.5599 12.2306 22.6354 12.2839C22.7109 12.3373 22.775 12.4056 22.8238 12.4849C22.8725 12.5641 22.905 12.6526 22.9191 12.7449C22.9332 12.8372 22.9287 12.9315 22.9059 13.022C22.8832 13.1125 22.8425 13.1974 22.7865 13.2715C22.7305 13.3456 22.6602 13.4074 22.58 13.4531Z" fill="currentColor" />
    </symbol>

    <symbol id="icon-footer-address" viewBox="0 0 32 32">
        <path d="M16.5 8C14.9093 8.00197 13.3842 8.66484 12.2594 9.84321C11.1346 11.0216 10.5019 12.6192 10.5 14.2857C10.4985 15.6475 10.9231 16.9722 11.7087 18.0571C11.7087 18.0571 11.8724 18.2829 11.8991 18.3154L16.5 24L21.1031 18.3126C21.1271 18.2823 21.2913 18.0571 21.2913 18.0571L21.2918 18.0554C22.0769 16.9709 22.5013 15.6468 22.5 14.2857C22.4981 12.6192 21.8654 11.0216 20.7406 9.84321C19.6158 8.66484 18.0907 8.00197 16.5 8ZM16.5 16.5714C16.0685 16.5714 15.6466 16.4374 15.2878 16.1862C14.929 15.9351 14.6494 15.5781 14.4843 15.1604C14.3191 14.7428 14.2759 14.2832 14.3601 13.8398C14.4443 13.3964 14.6521 12.9891 14.9572 12.6695C15.2624 12.3498 15.6511 12.1321 16.0743 12.0439C16.4976 11.9557 16.9363 12.001 17.3349 12.174C17.7336 12.347 18.0744 12.64 18.3141 13.0158C18.5539 13.3917 18.6818 13.8336 18.6818 14.2857C18.6811 14.8917 18.451 15.4726 18.042 15.9011C17.633 16.3296 17.0784 16.5707 16.5 16.5714Z" fill="currentColor" />
    </symbol>

    <symbol id="icon-swiper-button" viewBox="0 0 24 24">
        <circle fill="currentColor" cx="18" cy="18" r="18" />
        <path d="M12 10L26 10L26 24" stroke="#003475" fill="none" stroke-width="2.5" stroke-linecap="round" stroke-linejoin="round" />
        <path d="M26 10L10 26" stroke="#003475" fill="none" stroke-width="2.5" stroke-linecap="round" stroke-linejoin="round" />
    </symbol>

    <symbol id="icon-portfolio-deco" viewBox="0 0 400 400">
        <path d="M40 2L2 2L2 40" stroke="#4AF626" fill="none" stroke-width="2" />
        <path d="M360 2L398 2L398 40" stroke="#4AF626" fill="none" stroke-width="2" />
        <path d="M398 360L398 398L360 398" stroke="#4AF626" fill="none" stroke-width="2" />
        <path d="M40 398L2 398L2 360" stroke="#4AF626" fill="none" stroke-width="2" />
    </symbol>
</svg>